<mxfile host="app.diagrams.net" modified="2024-07-15T02:13:42.118Z" agent="Mozilla/5.0 (Macintosh; Intel Mac OS X 10_15_7) AppleWebKit/537.36 (KHTML, like Gecko) Chrome/126.0.0.0 Safari/537.36" version="24.6.5" etag="DXBkTD177OVaC4RAhaWn" type="github">
  <diagram name="第 1 页" id="4CCooeGvUZgMDE-9ER4M">
    <mxGraphModel>
      <root>
        <mxCell id="0" />
        <mxCell id="1" parent="0" />
      </root>
    </mxGraphModel>
  </diagram>
</mxfile>
